<?xml version="1.0" standalone="no"?>
<!DOCTYPE svg PUBLIC "-//W3C//DTD SVG 20010904//EN"
 "http://www.w3.org/TR/2001/REC-SVG-20010904/DTD/svg10.dtd">
<svg version="1.0" xmlns="http://www.w3.org/2000/svg"
 width="622.000000pt" height="622.000000pt" viewBox="0 0 622.000000 622.000000"
 preserveAspectRatio="xMidYMid meet">
<metadata>
Created by potrace 1.14, written by Peter Selinger 2001-2017
</metadata>
<g transform="translate(0.000000,622.000000) scale(0.100000,-0.100000)"
fill="#000000" stroke="none">
<path d="M2885 5984 c-16 -2 -73 -9 -125 -15 -750 -85 -1471 -504 -1938 -1126
-599 -796 -743 -1849 -381 -2783 352 -906 1154 -1580 2112 -1774 306 -62 697
-72 1001 -26 725 110 1379 489 1836 1065 164 207 348 531 435 768 354 964 187
2018 -447 2819 -96 122 -319 346 -438 442 -402 321 -873 528 -1385 608 -99 15
-191 21 -385 23 -140 2 -268 1 -285 -1z"/>
</g>
</svg>
