<?xml version="1.0" standalone="no"?>
<!DOCTYPE svg PUBLIC "-//W3C//DTD SVG 20010904//EN"
 "http://www.w3.org/TR/2001/REC-SVG-20010904/DTD/svg10.dtd">
<svg version="1.0" xmlns="http://www.w3.org/2000/svg"
 width="1358.000000pt" height="1358.000000pt" viewBox="0 0 1358.000000 1358.000000"
 preserveAspectRatio="xMidYMid meet">
<metadata>
Created by potrace 1.14, written by Peter Selinger 2001-2017
</metadata>
<g transform="translate(0.000000,1358.000000) scale(0.100000,-0.100000)"
fill="#000000" stroke="none">
<path d="M6319 12785 c-2 -1 -49 -6 -104 -10 -55 -3 -111 -8 -125 -10 -14 -2
-56 -6 -95 -10 -38 -3 -81 -8 -95 -10 -14 -2 -45 -6 -70 -10 -81 -10 -133 -18
-190 -30 -14 -2 -41 -7 -60 -10 -19 -3 -66 -12 -105 -20 -38 -8 -81 -16 -95
-19 -14 -2 -43 -9 -65 -14 -22 -6 -52 -13 -66 -16 -45 -7 -190 -47 -358 -98
-1013 -305 -1977 -913 -2691 -1698 -47 -52 -92 -101 -101 -110 -37 -39 -233
-284 -311 -390 -408 -550 -724 -1181 -924 -1845 -46 -152 -110 -404 -139 -550
-8 -42 -35 -194 -41 -230 -2 -16 -6 -41 -9 -55 -3 -14 -7 -45 -10 -70 -3 -25
-7 -56 -9 -70 -3 -14 -8 -56 -11 -93 -4 -37 -8 -76 -10 -85 -1 -9 -6 -62 -10
-116 -4 -55 -9 -127 -11 -160 -6 -79 -6 -572 0 -656 3 -36 8 -105 11 -155 4
-49 8 -101 10 -115 3 -14 7 -54 10 -90 3 -35 7 -76 9 -90 3 -14 7 -45 11 -70
4 -25 9 -58 11 -75 3 -16 7 -41 9 -55 16 -99 26 -161 35 -195 8 -33 38 -171
55 -250 39 -187 150 -538 263 -830 64 -166 196 -445 306 -645 51 -94 71 -129
141 -249 11 -18 68 -106 126 -195 308 -468 696 -907 1120 -1268 75 -63 163
-135 195 -159 32 -24 61 -46 64 -49 21 -21 193 -143 332 -235 170 -112 198
-130 280 -176 26 -14 53 -30 60 -36 41 -32 561 -293 584 -293 2 0 23 -9 47
-19 42 -20 209 -86 302 -121 97 -36 328 -111 385 -125 8 -2 51 -13 95 -25 44
-12 87 -23 95 -25 8 -2 51 -12 95 -24 44 -11 96 -23 115 -26 19 -3 53 -10 75
-15 22 -5 56 -11 75 -15 19 -3 58 -10 85 -15 28 -5 68 -12 90 -15 22 -4 65
-10 95 -15 30 -5 82 -12 115 -15 33 -3 74 -8 90 -10 172 -22 323 -29 655 -30
296 0 486 7 572 21 15 2 55 6 90 9 35 2 72 6 83 9 11 2 47 7 80 11 32 4 68 9
80 11 11 3 40 7 65 10 25 3 52 7 60 9 8 3 33 7 55 11 22 3 58 9 80 14 22 5 56
12 75 15 19 3 53 11 75 17 22 5 51 12 65 14 27 5 236 59 285 74 349 107 557
183 800 290 118 53 353 170 490 245 187 102 575 354 695 452 8 7 56 44 105 83
111 88 175 142 305 255 48 42 385 379 446 445 413 453 832 1103 1064 1655 119
282 260 679 246 693 -3 2 -23 -52 -45 -120 -131 -403 -317 -812 -532 -1170
-97 -163 -291 -450 -366 -543 -4 -6 -44 -55 -87 -110 -78 -98 -152 -186 -231
-275 -74 -83 -369 -376 -450 -446 -44 -38 -82 -71 -85 -74 -23 -23 -198 -164
-296 -237 -198 -149 -509 -351 -704 -456 -87 -47 -314 -160 -370 -185 -25 -11
-76 -34 -115 -52 -134 -60 -530 -206 -615 -225 -8 -2 -53 -15 -100 -30 -47
-14 -94 -27 -105 -29 -11 -2 -65 -15 -120 -29 -106 -27 -379 -82 -455 -92 -25
-3 -52 -8 -60 -10 -8 -2 -40 -7 -70 -10 -30 -3 -66 -8 -80 -10 -199 -28 -412
-40 -730 -39 -260 0 -380 4 -525 19 -22 2 -67 6 -100 9 -54 6 -168 21 -235 31
-14 3 -43 7 -65 10 -66 10 -348 65 -380 75 -16 5 -43 12 -60 14 -57 10 -321
85 -460 132 -767 254 -1448 647 -2060 1188 -114 101 -399 386 -490 491 -133
152 -192 224 -307 377 -378 501 -672 1065 -873 1673 -98 295 -157 530 -210
835 -40 234 -70 501 -81 725 -4 93 -4 499 1 550 1 22 6 87 10 145 4 58 8 121
10 140 5 57 16 153 20 180 2 14 7 45 10 70 8 61 39 247 50 300 3 14 8 41 11
60 11 64 83 353 114 460 17 58 33 112 35 120 6 27 57 174 71 207 8 17 14 37
14 45 0 8 3 18 8 22 4 4 7 11 7 14 1 9 62 166 85 217 10 22 33 74 51 115 42
99 173 361 239 480 149 267 332 540 520 774 52 65 106 133 120 151 14 17 32
38 40 47 8 8 42 46 75 84 117 134 384 396 546 534 46 40 97 83 112 97 147 128
706 513 746 513 6 0 11 3 11 8 0 4 10 12 23 18 12 6 74 39 137 74 131 72 347
177 495 240 104 44 349 139 375 145 8 2 42 13 75 25 284 100 804 220 1064 246
25 2 57 6 71 9 13 3 57 7 97 10 40 4 82 8 93 10 127 25 844 25 1046 0 16 -1
63 -6 104 -10 41 -3 82 -8 90 -10 8 -2 40 -7 70 -10 30 -3 66 -8 80 -10 14 -3
39 -7 55 -9 62 -10 234 -42 346 -65 469 -97 1126 -345 1547 -585 35 -20 66
-36 68 -36 7 0 270 -163 374 -233 529 -354 1031 -827 1405 -1327 43 -58 91
-122 107 -142 15 -20 28 -41 28 -47 0 -5 4 -11 8 -13 8 -3 145 -207 182 -269
126 -214 174 -303 260 -476 79 -161 183 -397 221 -503 77 -214 116 -332 173
-525 8 -27 15 -43 15 -35 2 44 -163 555 -223 694 -7 17 -39 91 -70 164 -193
451 -427 854 -740 1272 -39 52 -75 100 -81 106 -5 6 -23 28 -40 48 -16 21 -38
48 -48 60 -10 11 -35 41 -55 64 -209 247 -614 637 -831 802 -18 14 -38 30 -44
36 -31 28 -256 190 -377 271 -332 222 -617 374 -1050 560 -238 102 -757 267
-970 307 -14 2 -68 13 -120 25 -52 11 -108 22 -125 25 -16 2 -43 7 -60 10 -26
4 -82 14 -190 31 -16 2 -61 7 -100 11 -38 4 -72 8 -75 9 -3 2 -48 7 -100 10
-52 4 -106 10 -120 12 -30 5 -786 13 -791 8z"/>
<path d="M6727 12304 c-1 -1 -47 -5 -102 -8 -55 -4 -107 -9 -115 -11 -8 -2
-36 -7 -62 -10 -151 -17 -335 -60 -503 -117 -54 -18 -216 -86 -223 -93 -3 -3
44 -91 58 -110 4 -5 17 -26 28 -45 10 -19 52 -91 92 -160 40 -69 80 -138 90
-155 9 -16 43 -75 75 -130 32 -55 122 -210 200 -345 78 -135 292 -504 475
-820 183 -316 341 -588 350 -605 10 -16 50 -86 90 -155 40 -68 81 -138 90
-155 66 -117 424 -732 447 -767 12 -21 23 -40 23 -43 0 -3 16 -31 35 -61 19
-30 35 -57 35 -59 0 -3 19 -38 43 -78 24 -39 97 -164 162 -277 143 -247 203
-350 215 -370 6 -8 13 -22 17 -30 4 -8 16 -31 28 -50 12 -19 33 -55 47 -80 14
-25 49 -85 78 -135 29 -49 62 -106 73 -125 11 -19 30 -53 43 -76 33 -61 75
-126 79 -122 3 3 181 309 400 688 43 74 182 315 310 535 128 220 270 465 316
545 46 80 89 153 94 162 6 9 17 29 26 45 9 15 25 44 36 63 11 19 50 87 87 150
36 63 70 122 76 130 5 8 26 44 46 80 133 232 648 1117 656 1127 12 15 -146
174 -315 319 -62 53 -121 104 -132 113 -56 50 -298 226 -435 316 -156 103
-281 178 -420 251 -41 21 -77 41 -80 44 -7 7 -278 140 -284 140 -3 0 -36 14
-73 31 -191 88 -541 213 -778 278 -185 50 -453 109 -570 124 -283 37 -265 35
-380 43 -86 6 -443 12 -448 8z"/>
<path d="M4890 11961 c-79 -27 -206 -76 -275 -105 -361 -155 -613 -286 -895
-464 -74 -47 -146 -94 -160 -104 -14 -11 -74 -56 -135 -100 -94 -69 -233 -178
-271 -213 -7 -5 -43 -37 -80 -70 -108 -95 -322 -307 -406 -402 -42 -49 -90
-104 -107 -123 -53 -60 -245 -310 -314 -410 -184 -266 -393 -636 -542 -965
-58 -126 -185 -441 -185 -457 0 -5 1312 -8 2916 -8 l2916 0 -33 58 c-17 31
-41 72 -51 91 -10 18 -90 158 -177 310 -87 152 -168 292 -178 311 -11 19 -128
224 -260 455 -132 231 -250 436 -260 455 -43 76 -96 166 -111 190 -9 14 -17
27 -17 30 0 3 -18 34 -39 70 -21 36 -47 80 -58 98 -44 78 -211 363 -331 567
-72 121 -165 279 -207 350 -181 306 -203 339 -254 372 -73 49 -194 85 -306 90
-86 3 -103 1 -180 -26z"/>
<path d="M10863 10337 c-111 -193 -460 -797 -574 -994 -71 -122 -129 -227
-129 -233 0 -5 -4 -10 -10 -10 -5 0 -10 -4 -10 -9 0 -8 -286 -509 -320 -561
-5 -8 -17 -28 -26 -45 -9 -16 -143 -248 -297 -515 -154 -267 -289 -501 -300
-520 -11 -19 -61 -107 -112 -195 -75 -129 -214 -371 -335 -580 -9 -16 -52 -91
-95 -165 -43 -74 -112 -195 -154 -267 -42 -73 -81 -133 -87 -133 -18 0 -87
-31 -81 -36 2 -2 15 -7 27 -9 12 -2 24 -6 27 -8 4 -4 -28 -68 -38 -77 -3 -3
-8 -10 -10 -15 -2 -6 -17 -34 -34 -63 -28 -49 -33 -52 -70 -53 l-40 -1 33 -9
33 -10 -37 -67 c-20 -37 -40 -71 -44 -77 -11 -15 -200 -345 -200 -350 0 -2
138 -4 308 -4 2456 -2 2675 -1 3197 14 250 7 281 12 385 62 92 44 168 99 238
171 63 65 89 112 98 178 3 27 7 51 9 54 2 3 6 30 10 60 4 30 8 57 10 60 2 3 6
39 10 80 4 41 8 77 10 80 2 3 6 43 10 90 4 47 9 94 11 105 18 93 26 681 12
910 -9 142 -19 233 -53 475 -6 39 -32 181 -41 220 -3 14 -7 38 -10 53 -3 15
-19 81 -35 145 -16 64 -31 126 -34 137 -9 40 -94 302 -128 395 -179 493 -453
990 -802 1455 -127 170 -262 335 -273 335 -4 -1 -26 -33 -49 -73z"/>
<path d="M12532 8230 c0 -8 4 -26 8 -40 6 -20 8 -21 8 -5 0 11 -3 29 -8 40 -5
12 -8 14 -8 5z"/>
<path d="M3467 8174 c-1 -1 -308 -5 -682 -8 -623 -6 -879 -10 -1055 -17 -101
-3 -186 -55 -286 -173 -109 -128 -139 -209 -160 -431 -3 -27 -7 -61 -9 -75 -2
-14 -7 -56 -10 -95 -4 -38 -8 -86 -10 -105 -18 -167 -25 -693 -12 -900 23
-345 61 -613 132 -920 9 -36 18 -76 21 -90 3 -14 20 -79 39 -145 206 -729 575
-1412 1103 -2038 l74 -88 36 58 c19 32 44 74 55 93 23 42 355 617 508 880 58
102 119 208 134 235 15 28 31 55 35 60 7 8 127 217 217 375 11 19 130 224 264
455 133 231 252 436 263 456 12 21 50 88 86 150 36 61 76 130 89 153 13 23 47
82 76 131 29 50 64 110 77 135 14 25 55 95 91 157 36 62 77 132 90 155 39 69
526 912 566 978 11 19 29 51 39 70 11 19 83 144 161 278 77 133 141 247 141
252 0 5 -313 9 -752 10 -414 1 -880 2 -1036 3 -156 1 -284 1 -285 1z"/>
<path d="M12551 8150 c0 -8 4 -24 9 -35 5 -13 9 -14 9 -5 0 8 -4 24 -9 35 -5
13 -9 14 -9 5z"/>
<path d="M12572 8075 c0 -11 4 -33 8 -50 7 -27 8 -27 8 -5 0 14 -4 36 -8 50
-6 20 -8 21 -8 5z"/>
<path d="M12591 7974 c0 -11 3 -14 6 -6 3 7 2 16 -1 19 -3 4 -6 -2 -5 -13z"/>
<path d="M12610 7861 c0 -6 4 -13 10 -16 6 -3 7 1 4 9 -7 18 -14 21 -14 7z"/>
<path d="M12621 7814 c0 -11 3 -14 6 -6 3 7 2 16 -1 19 -3 4 -6 -2 -5 -13z"/>
<path d="M12631 7764 c0 -11 3 -14 6 -6 3 7 2 16 -1 19 -3 4 -6 -2 -5 -13z"/>
<path d="M4920 6391 c0 -7 -130 -238 -169 -301 -5 -8 -42 -71 -82 -140 -40
-69 -141 -242 -224 -385 -339 -581 -726 -1251 -790 -1370 -21 -38 -41 -74 -45
-80 -9 -11 -11 -16 -171 -303 -66 -118 -119 -215 -119 -217 0 -2 -19 -36 -41
-76 -196 -346 -219 -409 -214 -586 4 -110 11 -157 37 -241 25 -82 44 -118 83
-156 37 -35 198 -166 280 -227 33 -24 62 -47 65 -50 3 -4 82 -58 175 -121 469
-318 947 -548 1455 -701 126 -39 371 -100 465 -116 33 -6 70 -13 81 -15 12 -3
71 -12 130 -21 60 -9 120 -18 134 -21 14 -2 52 -6 85 -10 33 -3 71 -7 84 -9
159 -26 824 -26 1066 -1 22 3 72 8 110 12 39 4 77 8 85 9 8 1 44 5 80 10 36 4
67 8 70 10 3 1 32 6 65 10 33 3 83 11 110 16 28 6 68 12 90 16 22 3 42 7 44 9
3 2 -83 154 -248 438 -13 22 -35 61 -49 86 -14 24 -49 84 -78 133 -30 49 -54
91 -54 93 0 2 -22 41 -49 86 -53 90 -302 521 -334 578 -10 19 -34 60 -52 90
-35 58 -489 842 -533 920 -14 25 -62 108 -107 185 -45 77 -97 167 -116 200
-19 33 -39 69 -46 80 -7 11 -17 29 -22 40 -6 11 -22 38 -36 60 -14 22 -28 47
-32 55 -4 8 -49 86 -100 173 -51 88 -93 163 -93 168 0 5 -4 9 -10 9 -5 0 -10
5 -10 11 0 6 -31 63 -69 127 -37 64 -111 191 -163 282 -53 91 -153 264 -223
385 -70 121 -211 365 -314 542 -168 291 -201 343 -201 314z"/>
<path d="M12626 5663 c-6 -14 -5 -15 5 -6 7 7 10 15 7 18 -3 3 -9 -2 -12 -12z"/>
<path d="M12606 5555 c-3 -9 -6 -24 -5 -33 0 -9 5 -4 10 12 9 32 6 48 -5 21z"/>
<path d="M12583 5455 c-3 -9 -3 -18 -1 -21 3 -3 8 4 11 16 6 23 -1 27 -10 5z"/>
<path d="M12560 5355 c0 -8 2 -15 4 -15 2 0 6 7 10 15 3 8 1 15 -4 15 -6 0
-10 -7 -10 -15z"/>
<path d="M12520 5193 c-18 -71 -37 -136 -42 -145 -5 -11 -5 -18 0 -18 9 0 86
279 79 286 -2 2 -19 -53 -37 -123z"/>
<path d="M6188 4930 c3 -8 62 -112 130 -230 68 -118 137 -238 153 -267 16 -29
58 -102 94 -164 36 -61 65 -116 65 -120 0 -5 5 -9 10 -9 6 0 10 -5 10 -10 0
-6 43 -86 96 -178 54 -92 106 -183 117 -202 11 -19 56 -98 100 -175 44 -77 88
-153 96 -168 9 -16 21 -36 26 -46 6 -9 41 -70 79 -136 177 -305 432 -742 467
-800 18 -30 35 -60 60 -105 88 -159 410 -681 432 -702 98 -89 364 -138 481
-88 26 11 47 19 49 19 6 -1 219 83 312 123 136 59 161 71 308 144 437 219 807
463 1162 768 114 98 451 442 554 566 108 128 235 297 312 410 24 36 47 67 51
68 5 2 8 8 8 12 0 5 26 49 57 97 32 48 65 102 73 118 9 17 41 73 72 125 92
159 218 418 323 665 25 58 115 291 115 297 0 2 -1309 3 -2909 3 -2586 0 -2908
-2 -2903 -15z"/>
</g>
</svg>
