<?xml version="1.0" standalone="no"?>
<!DOCTYPE svg PUBLIC "-//W3C//DTD SVG 20010904//EN"
 "http://www.w3.org/TR/2001/REC-SVG-20010904/DTD/svg10.dtd">
<svg version="1.0" xmlns="http://www.w3.org/2000/svg"
 width="2057.000000pt" height="2057.000000pt" viewBox="0 0 2057.000000 2057.000000"
 preserveAspectRatio="xMidYMid meet">
<metadata>
Created by potrace 1.14, written by Peter Selinger 2001-2017
</metadata>
<g transform="translate(0.000000,2057.000000) scale(0.100000,-0.100000)"
fill="#000000" stroke="none">
<path d="M10088 14400 c-440 -33 -852 -143 -1253 -334 -136 -65 -311 -162
-405 -226 l-55 -37 -350 13 c-492 17 -1285 38 -1289 33 -2 -2 -7 -219 -11
-482 -6 -378 -10 -477 -20 -473 -29 11 -567 350 -807 508 -150 99 -264 168
-275 166 -24 -4 -29 -43 -9 -72 8 -13 72 -68 143 -123 170 -133 379 -305 699
-575 l264 -222 0 -213 0 -213 130 0 129 0 3 99 3 98 328 -282 c180 -155 333
-287 338 -292 7 -7 -4 -38 -34 -99 -158 -315 -261 -651 -313 -1025 -25 -176
-26 -633 -1 -809 104 -743 431 -1390 952 -1888 502 -479 1128 -773 1829 -859
162 -19 525 -22 686 -4 763 84 1426 407 1955 952 667 688 978 1610 869 2573
-153 1354 -1178 2465 -2524 2736 -239 48 -419 63 -695 57 -251 -6 -387 -21
-588 -63 -695 -147 -1333 -533 -1781 -1078 -48 -58 -90 -106 -92 -106 -3 0
-214 127 -470 282 l-464 282 0 345 c0 190 -3 389 -6 442 l-7 96 299 7 c164 4
427 11 583 16 157 6 286 8 288 6 2 -2 -18 -20 -44 -40 -148 -115 -455 -417
-440 -432 3 -3 38 28 78 68 103 102 233 214 367 316 121 92 142 100 270 101
l53 1 -6 58 -7 57 149 82 c740 410 1535 544 2331 392 867 -165 1741 -648 2627
-1454 61 -55 259 -246 440 -425 349 -344 496 -477 742 -675 707 -567 1426
-918 2120 -1034 203 -34 321 -44 543 -44 375 0 682 51 1032 172 647 224 1296
700 1749 1282 94 119 113 148 107 154 -2 2 -39 -39 -83 -91 -365 -443 -887
-851 -1399 -1094 -595 -283 -1241 -374 -1871 -265 -802 139 -1627 586 -2424
1313 -96 87 -100 92 -71 92 28 0 30 2 30 38 0 20 7 228 15 462 16 451 34 1173
29 1179 -2 2 -386 6 -853 9 l-851 5 0 -132 0 -133 735 4 735 3 0 -180 c0 -181
14 -702 26 -1000 l6 -160 -243 240 c-400 395 -661 624 -984 867 -688 518
-1417 858 -2095 978 -269 47 -622 68 -862 50z m-1813 -665 l-76 -55 -272 10
c-150 5 -448 12 -663 16 l-391 7 -6 -138 c-4 -76 -8 -283 -9 -459 -1 -226 -3
-293 -8 -226 -4 52 -8 266 -9 476 l-1 381 343 8 c188 4 493 13 677 20 184 6
370 13 414 14 l78 1 -77 -55z m125 -12 c0 -48 -12 -57 -66 -47 l-47 9 49 32
c61 39 64 39 64 6z m5974 -145 c3 -90 13 -401 21 -693 8 -291 18 -569 21 -617
l6 -88 -34 0 c-25 0 -42 8 -61 28 l-27 28 10 260 c16 431 32 1205 25 1212 -4
4 -291 9 -638 12 -449 4 -567 7 -407 10 124 3 417 7 651 8 l427 2 6 -162z
m-7517 -1251 c-2 -23 -3 -1 -3 48 0 50 1 68 3 42 2 -26 2 -67 0 -90z"/>
<path d="M3423 9835 c-749 -75 -1458 -397 -2058 -935 -120 -108 -275 -272
-275 -292 0 -6 55 43 123 108 509 498 1219 862 1911 979 231 39 374 48 644 42
261 -6 406 -22 642 -72 739 -157 1504 -560 2260 -1192 220 -184 381 -334 730
-678 423 -417 595 -569 913 -807 285 -213 523 -362 812 -508 439 -222 812
-343 1257 -407 193 -28 663 -25 858 5 364 56 674 157 1010 328 491 250 950
626 1301 1066 153 192 186 260 43 88 -181 -217 -462 -483 -705 -667 -691 -523
-1486 -780 -2239 -724 -744 56 -1467 356 -2226 924 -302 225 -551 446 -957
851 -711 707 -1256 1120 -1917 1449 -385 192 -694 303 -1065 380 -345 72 -729
95 -1062 62z"/>
<path d="M14225 7482 l7 -729 -328 -7 c-445 -9 -975 -25 -1051 -32 l-63 -6 0
-68 c0 -38 4 -71 9 -74 20 -13 1659 -62 1670 -50 7 6 18 757 20 1322 l1 372
-136 0 -137 0 8 -728z m139 -862 c-3 -2 -150 -8 -327 -12 -341 -7 -861 -24
-1089 -34 l-138 -6 0 62 0 62 118 -6 c158 -9 673 -24 1078 -32 l331 -7 6 369
c4 203 8 527 9 719 1 230 4 100 9 -380 4 -401 5 -732 3 -735z"/>
<path d="M6813 8193 l-31 -4 -6 -82 c-13 -185 -52 -1585 -44 -1592 2 -2 385
-7 851 -11 l847 -7 0 136 0 137 -697 -5 c-384 -3 -712 -7 -729 -10 l-31 -3 -7
296 c-9 425 -25 919 -32 1045 l-6 107 -42 -2 c-22 0 -55 -3 -73 -5z m92 -90
c-8 -114 -24 -652 -31 -1079 l-7 -371 243 -6 c134 -4 457 -7 718 -7 262 0 473
-2 471 -4 -2 -2 -333 -6 -735 -10 l-731 -7 -7 329 c-3 181 -13 511 -21 733 -8
222 -15 425 -15 452 l0 47 60 0 60 0 -5 -77z"/>
</g>
</svg>
